<svg xmlns="http://www.w3.org/2000/svg" viewBox="0 0 128 128" width="128" height="128">
  <!-- Book shadow/border -->
  <rect x="8" y="8" width="80" height="112" rx="2" ry="2" fill="#455a64"/>

  <!-- Book page (white interior) -->
  <rect x="14" y="14" width="68" height="100" rx="1" ry="1" fill="#ffffff"/>

  <!-- Book lines -->
  <line x1="22" y1="32" x2="74" y2="32" stroke="#cfd8dc" stroke-width="2"/>
  <line x1="22" y1="48" x2="74" y2="48" stroke="#cfd8dc" stroke-width="2"/>
  <line x1="22" y1="64" x2="74" y2="64" stroke="#cfd8dc" stroke-width="2"/>
  <line x1="22" y1="80" x2="74" y2="80" stroke="#cfd8dc" stroke-width="2"/>
  <line x1="22" y1="96" x2="74" y2="96" stroke="#cfd8dc" stroke-width="2"/>

  <!-- Ruler background -->
  <rect x="96" y="8" width="24" height="112" fill="#ffc107"/>

  <!-- Ruler marks -->
  <line x1="96" y1="20" x2="108" y2="20" stroke="#333" stroke-width="2"/>
  <line x1="96" y1="32" x2="104" y2="32" stroke="#333" stroke-width="1.5"/>
  <line x1="96" y1="44" x2="108" y2="44" stroke="#333" stroke-width="2"/>
  <line x1="96" y1="56" x2="104" y2="56" stroke="#333" stroke-width="1.5"/>
  <line x1="96" y1="68" x2="108" y2="68" stroke="#333" stroke-width="2"/>
  <line x1="96" y1="80" x2="104" y2="80" stroke="#333" stroke-width="1.5"/>
  <line x1="96" y1="92" x2="108" y2="92" stroke="#333" stroke-width="2"/>
  <line x1="96" y1="104" x2="104" y2="104" stroke="#333" stroke-width="1.5"/>
</svg>
